<svg xmlns="http://www.w3.org/2000/svg" viewBox="0 0 100 100"><path d="M67.13,46.13H11A1.29,1.29,0,0,0,9.7,47.42v2.06A1.3,1.3,0,0,0,11,50.78h.64v27a2.49,2.49,0,0,0,2.5,2.5h3.3v2a2.28,2.28,0,0,0,4.28,1.1l1.7-3.09H54.73l1.7,3.09a2.26,2.26,0,0,0,2,1.19,2.29,2.29,0,0,0,2.28-2.29v-2H64a2.49,2.49,0,0,0,2.5-2.5v-27h.63a1.31,1.31,0,0,0,1.3-1.3V47.42A1.3,1.3,0,0,0,67.13,46.13ZM37.81,74.87a1.26,1.26,0,0,1-1.26,1.27H16.31A1.27,1.27,0,0,1,15,74.87v-7.2a1.27,1.27,0,0,1,1.27-1.26H36.55a1.26,1.26,0,0,1,1.26,1.26Zm0-12.22a1.25,1.25,0,0,1-1.26,1.26H16.31A1.26,1.26,0,0,1,15,62.65V55.46a1.27,1.27,0,0,1,1.27-1.27H36.55a1.26,1.26,0,0,1,1.26,1.27ZM63.09,74.87a1.28,1.28,0,0,1-1.26,1.27H41.57a1.28,1.28,0,0,1-1.26-1.27v-7.2a1.27,1.27,0,0,1,1.26-1.26H61.83a1.27,1.27,0,0,1,1.26,1.26Zm0-12.22a1.27,1.27,0,0,1-1.26,1.26H41.57a1.27,1.27,0,0,1-1.26-1.26V55.46a1.28,1.28,0,0,1,1.26-1.27H61.83a1.28,1.28,0,0,1,1.26,1.27Z"></path><path d="M29.55,71.52a1.26,1.26,0,0,1-1.25,1.25h-5a1.25,1.25,0,0,1,0-2.5h5A1.25,1.25,0,0,1,29.55,71.52Z"></path><path d="M29.55,59.06a1.26,1.26,0,0,1-1.25,1.25h-5a1.25,1.25,0,0,1,0-2.5h5A1.25,1.25,0,0,1,29.55,59.06Z"></path><path d="M55.45,71.52a1.24,1.24,0,0,1-1.25,1.25h-5a1.25,1.25,0,0,1,0-2.5h5A1.24,1.24,0,0,1,55.45,71.52Z"></path><path d="M55.45,59.06a1.24,1.24,0,0,1-1.25,1.25h-5a1.25,1.25,0,0,1,0-2.5h5A1.24,1.24,0,0,1,55.45,59.06Z"></path><path d="M89.72,18.8a2.83,2.83,0,0,1-2.1,2.73v4.12a3.21,3.21,0,0,1-3.2,3.21H80.17v47.4h1.18a2,2,0,0,1,2,2v2.08h1.22a2,2,0,0,1,2,2v2.07H69V82.35a2,2,0,0,1,2-2h1.22V78.27a2,2,0,0,1,2-2h1.19V28.86H71.15A3.21,3.21,0,0,1,68,25.65V21.53a2.83,2.83,0,1,1,1.48,0v4.12a1.73,1.73,0,0,0,1.72,1.74h4.27V21.34A2.37,2.37,0,0,1,77.79,19a2.07,2.07,0,0,1,.66.1.06.06,0,0,1,0,0,1.76,1.76,0,0,1,.62.29l.07.06a1.79,1.79,0,0,1,.4.38,1,1,0,0,1,.13.15,2.06,2.06,0,0,1,.27.51.73.73,0,0,1,.06.21,2.17,2.17,0,0,1,.09.53s0,.07,0,.11v6.05h4.25a1.73,1.73,0,0,0,1.72-1.74V21.53a2.83,2.83,0,1,1,3.58-2.73Z"></path></svg>