<svg xmlns="http://www.w3.org/2000/svg" viewBox="0 0 100 100"><path d="M83,44.64v6.6H77.88a1.49,1.49,0,0,1-1.49-1.49V46.13a1.49,1.49,0,0,1,1.49-1.49Z"></path><path d="M40.18,67.35V85.43H59.82V67.35ZM55.36,78.77H44.64a.89.89,0,0,1-.89-.89.9.9,0,0,1,.89-.9H55.36a.9.9,0,0,1,.89.9A.89.89,0,0,1,55.36,78.77Zm0-4.76H44.64a.9.9,0,0,1,0-1.79H55.36a.9.9,0,0,1,0,1.79Z"></path><path d="M59.82,44.64v6.6H56.44A1.49,1.49,0,0,1,55,49.75V46.13a1.49,1.49,0,0,1,1.49-1.49Z"></path><path d="M56.44,42.86h3.38V14.57H40.18v51H59.82V53H56.44a3.26,3.26,0,0,1-3.27-3.27V46.13A3.27,3.27,0,0,1,56.44,42.86ZM44.22,31a.89.89,0,0,1-.89-.89v-6.9a.88.88,0,0,1,.89-.89H55.78a.88.88,0,0,1,.89.89v6.9a.89.89,0,0,1-.89.89Z"></path><path d="M38.39,44.64v6.6H35a1.49,1.49,0,0,1-1.49-1.49V46.13A1.49,1.49,0,0,1,35,44.64Z"></path><rect x="45.12" y="24.07" width="9.76" height="5.11"></rect><path d="M61.61,67.35V85.43H82.15a.9.9,0,0,0,.89-.9V67.35ZM76.79,78.77H66.08a.89.89,0,0,1-.9-.89.91.91,0,0,1,.9-.9H76.79a.91.91,0,0,1,.9.9A.89.89,0,0,1,76.79,78.77Zm0-4.76H66.08a.9.9,0,1,1,0-1.79H76.79a.9.9,0,1,1,0,1.79Z"></path><path d="M17,67.35V84.53a.9.9,0,0,0,.89.9H38.39V67.35Zm17,11.42H23.21a.89.89,0,0,1-.9-.89.91.91,0,0,1,.9-.9H33.92a.91.91,0,0,1,.9.9A.89.89,0,0,1,33.92,78.77Zm0-4.76H23.21a.9.9,0,1,1,0-1.79H33.92a.9.9,0,1,1,0,1.79Z"></path><path d="M77.88,42.86H83V15.47a.9.9,0,0,0-.89-.9H61.61v51H83V53H77.88a3.27,3.27,0,0,1-3.28-3.27V46.13A3.28,3.28,0,0,1,77.88,42.86ZM65.66,31a.89.89,0,0,1-.89-.89v-6.9a.88.88,0,0,1,.89-.89H77.21a.88.88,0,0,1,.89.89v6.9a.89.89,0,0,1-.89.89Z"></path><rect x="66.55" y="24.07" width="9.76" height="5.11"></rect><path d="M35,42.86h3.38V14.57H17.85a.9.9,0,0,0-.89.9V65.56H38.39V53H35a3.27,3.27,0,0,1-3.28-3.27V46.13A3.28,3.28,0,0,1,35,42.86ZM22.79,31a.89.89,0,0,1-.89-.89v-6.9a.88.88,0,0,1,.89-.89H34.34a.88.88,0,0,1,.89.89v6.9a.89.89,0,0,1-.89.89Z"></path><rect x="23.68" y="24.07" width="9.76" height="5.11"></rect></svg>