<svg xmlns="http://www.w3.org/2000/svg" viewBox="0 0 100 100"><path d="M74.5,2A23.8,23.8,0,0,0,60.71,6.39,24.2,24.2,0,0,0,52,17.59L43.49,9.07c-.29-.29-.58-.58-.87-.84a2.82,2.82,0,0,0-.35-.29l-.53-.47c-.17-.15-.35-.26-.49-.41s-.29-.23-.44-.32l-.58-.41-.38-.26-.61-.4a2.66,2.66,0,0,1-.38-.24l-.61-.35a2.25,2.25,0,0,1-.43-.23c-.18-.09-.35-.2-.56-.29a3.6,3.6,0,0,0-.49-.23,4.13,4.13,0,0,0-.53-.24l-.58-.26-.43-.17-.67-.26-.38-.12a5.62,5.62,0,0,0-.76-.23,1,1,0,0,0-.32-.12c-.26-.06-.52-.14-.81-.2L32,2.64l-.88-.17c-.08,0-.17,0-.29-.06A8.79,8.79,0,0,1,30,2.26l-.29,0-.85-.11a1.42,1.42,0,0,1-.37,0c-.27,0-.53,0-.82,0a2.37,2.37,0,0,0-.46,0c-.24,0-.47,0-.7,0S26,2,25.8,2a2.64,2.64,0,0,0-.47,0l-.81,0a1.38,1.38,0,0,1-.35,0l-.87.11a.8.8,0,0,1-.26,0c-.32,0-.62.12-.91.15-.08,0-.17,0-.26.06a6.82,6.82,0,0,0-.87.2.76.76,0,0,0-.26.06l-.85.2L19.6,3l-.78.26a1.45,1.45,0,0,0-.35.12l-.7.26c-.15.06-.29.11-.41.17l-.61.26c-.17.06-.32.15-.49.21l-.53.26c-.2.09-.35.2-.52.29a2.39,2.39,0,0,0-.5.26c-.17.09-.34.21-.55.32l-.43.27L13.17,6c-.14.12-.29.21-.43.32l-.53.35-.49.41a2.15,2.15,0,0,0-.41.32c-.23.18-.47.38-.7.58a1.2,1.2,0,0,1-.2.18A23.12,23.12,0,0,0,8.69,9.91c-.06.06-.11.15-.17.21a7.41,7.41,0,0,0-.58.7,1.76,1.76,0,0,0-.32.4,5.21,5.21,0,0,0-.41.5l-.35.52c-.12.15-.2.29-.32.44s-.23.38-.35.55l-.26.44a4.37,4.37,0,0,0-.32.55,2,2,0,0,0-.26.46,3.74,3.74,0,0,0-.29.56l-.27.52c-.08.15-.14.32-.23.5s-.17.4-.26.58a2.62,2.62,0,0,1-.18.43c-.08.24-.14.47-.23.7s-.09.24-.14.35-.15.53-.24.76l-.08.32c-.09.29-.18.55-.24.81s0,.21-.06.32-.14.56-.17.82a1.13,1.13,0,0,0-.06.32,7,7,0,0,0-.14.84c0,.12,0,.23-.06.35l-.09.79a2.53,2.53,0,0,0,0,.46c0,.23,0,.47-.06.73a6.78,6.78,0,0,0,0,.78V74A24,24,0,0,0,40.32,93.62l0,0A24.21,24.21,0,0,0,49,82.45L57.54,91a2.2,2.2,0,0,0,.18.14c.23.24.46.47.69.67a5.74,5.74,0,0,0,.47.41l.41.35c.2.17.4.32.61.47l.29.26c.23.14.46.32.67.46a1.19,1.19,0,0,1,.29.21l.7.43c.08.06.2.12.29.18a6.58,6.58,0,0,0,.67.4c.11.06.23.15.35.21s.43.2.64.32a2.76,2.76,0,0,0,.43.2c.21.09.41.21.58.26s.35.18.5.24.35.14.55.2a2.84,2.84,0,0,0,.58.2l.47.18a5.67,5.67,0,0,0,.67.2,1.93,1.93,0,0,0,.41.12,5,5,0,0,0,.72.2l.38.09.76.17a2.16,2.16,0,0,0,.4.06,7.28,7.28,0,0,0,.76.15c.15,0,.32,0,.47.06l.67.08c.23,0,.43,0,.64,0a3.2,3.2,0,0,0,.55,0,15.49,15.49,0,0,0,2.36,0,3.26,3.26,0,0,0,.55,0l.61,0,.73-.08a2.12,2.12,0,0,1,.43-.06,5.68,5.68,0,0,0,.76-.15,2,2,0,0,0,.41-.06l.75-.17.38-.09a6.61,6.61,0,0,0,.73-.2l.41-.09a6.2,6.2,0,0,1,.69-.23,2.86,2.86,0,0,1,.44-.15c.2-.08.41-.17.61-.23a4.73,4.73,0,0,1,.5-.2,4,4,0,0,1,.52-.24,5.64,5.64,0,0,0,.55-.26c.18-.09.32-.14.47-.23a6,6,0,0,0,.61-.32c.12-.06.26-.15.38-.2s.43-.27.64-.38a3.14,3.14,0,0,0,.35-.24c.23-.11.43-.26.64-.37s.23-.18.35-.27l.61-.43c.14-.09.26-.21.4-.29s.35-.26.53-.41l.52-.47a2.54,2.54,0,0,0,.35-.32,19.12,19.12,0,0,0,1.69-1.68c.11-.12.2-.24.29-.35s.32-.35.46-.53l.41-.49c.12-.15.21-.29.32-.44a4,4,0,0,0,.41-.58,4.17,4.17,0,0,0,.26-.38c.15-.2.26-.4.41-.61a3.17,3.17,0,0,0,.23-.38c.12-.2.23-.4.35-.58s.15-.29.23-.43a2.94,2.94,0,0,0,.29-.59,3.38,3.38,0,0,0,.24-.46c.08-.18.17-.38.26-.55s.14-.35.23-.56.12-.32.18-.46.17-.41.26-.64.09-.29.11-.41a6.91,6.91,0,0,0,.24-.73,2.79,2.79,0,0,1,.11-.35c.06-.26.15-.52.21-.78a2.49,2.49,0,0,0,.08-.32c.06-.26.12-.56.18-.82,0-.11,0-.2.06-.32a7.11,7.11,0,0,0,.11-.84c0-.09,0-.23.06-.35s.09-.52.12-.79a2.69,2.69,0,0,1,0-.49c0-.2,0-.44,0-.67a7.59,7.59,0,0,0,0-.81V26A24,24,0,0,0,74.5,2ZM88.21,87.71a19.36,19.36,0,0,1-27.38,0l-48-48A19.36,19.36,0,1,1,40.2,12.33l48,48a19.36,19.36,0,0,1,0,27.38Z"></path></svg>