<svg xmlns="http://www.w3.org/2000/svg" viewBox="0 0 100 100"><path d="M12.65,82.91l-.4,7.31H8.43L8,82.91l1.75,1.14a1,1,0,0,0,1.1,0Z"></path><path d="M96.6,46.71V77.55l-4,2.63-.06,0-2.82,1.84-6.94-4.5V52a1,1,0,0,0-2,0V77.55l-6.94,4.5-6.94-4.5V52a1,1,0,0,0-2,0V77.55l-6.94,4.5L51,77.55V52a1,1,0,0,0-2,0V77.55l-7,4.5-6.94-4.5V52a1,1,0,0,0-2,0V77.55l-6.94,4.5-6.94-4.5V52a1,1,0,0,0-2,0V77.54l-6.95,4.51L3.4,77.54V46.71Z"></path><path d="M92,82.91l-.39,7.32H87.75l-.4-7.32,1.75,1.14a1,1,0,0,0,1.1,0Z"></path><path d="M27.81,11.49V13a18,18,0,0,0-2.94,0V11.49a1.85,1.85,0,0,1,.47-1.25C26.29,9.2,27.81,10,27.81,11.49Z"></path><path d="M45,35.67H7.66c-1,0-1-1.76,0-1.76H44.94a.67.67,0,0,1,.57.23C46,34.69,45.68,35.67,45,35.67Z"></path><path d="M43.93,31.93H8.76A17.73,17.73,0,0,1,26.34,15,17.77,17.77,0,0,1,43.93,31.93Z"></path><polygon points="39.38 37.65 38.52 40.02 14.17 40.02 13.3 37.65 39.38 37.65"></polygon><path d="M35.06,44.73H17.63A5.55,5.55,0,0,0,19.27,42H33.41A5.64,5.64,0,0,0,35.06,44.73Z"></path><path d="M75.12,11.49V13a20.61,20.61,0,0,0-2.94,0V11.49a1.85,1.85,0,0,1,.47-1.25C73.6,9.19,75.12,10,75.12,11.49Z"></path><path d="M92.33,35.67H55c-1,0-1-1.76,0-1.76H92.25a.67.67,0,0,1,.57.23C93.34,34.69,93,35.67,92.33,35.67Z"></path><path d="M91.24,31.93H56.07a17.6,17.6,0,0,1,35.17,0Z"></path><polygon points="86.7 37.65 85.83 40.02 61.48 40.02 60.61 37.65 86.7 37.65"></polygon><path d="M82.37,44.73H64.94A5.55,5.55,0,0,0,66.58,42H80.73A5.55,5.55,0,0,0,82.37,44.73Z"></path></svg>