<svg xmlns="http://www.w3.org/2000/svg" viewBox="0 0 100 100"><path d="M57.85,47.27V73.83H31.44V59.23A5.16,5.16,0,0,0,28,54.37V48.54a2.76,2.76,0,0,1,2.75-2.74H56.39A1.47,1.47,0,0,1,57.85,47.27Z"></path><path d="M89.9,48.54v5.84a5.14,5.14,0,0,0-3.45,4.85v14.6H60V47.27a1.47,1.47,0,0,1,1.46-1.47H87.16A2.74,2.74,0,0,1,89.9,48.54Z"></path><path d="M86.45,76v7h-55V76Z"></path><path d="M89,85.12l-.89,4.36a1.79,1.79,0,0,1-3.5,0l-.89-4.36Z"></path><path d="M94.58,59.23V83h-6V59.23a3,3,0,0,1,5.11-2.11A3,3,0,0,1,94.58,59.23Z"></path><path d="M34.12,85.12l-.9,4.36a1.76,1.76,0,0,1-1.74,1.42,1.78,1.78,0,0,1-1.75-1.42l-.89-4.36Z"></path><path d="M29.29,59.23V83h-6V59.23a3,3,0,0,1,3-3,2.65,2.65,0,0,1,.71.09A3,3,0,0,1,29.29,59.23Z"></path><path d="M48.34,19.08v1.84a12,12,0,0,1-12,12h-1.5a12,12,0,0,1-12-12V19.08H34.6a9.34,9.34,0,0,0-9.2-7.8H22.57a9.34,9.34,0,0,0-9.32,9.33V37.48a6.74,6.74,0,0,1,0,13.31V92.44h4.58v2.17H6.5V92.44h4.58V50.79a6.74,6.74,0,0,1,0-13.31V20.61A11.51,11.51,0,0,1,22.57,9.13H25.4a11.5,11.5,0,0,1,11.38,9.95Z"></path><rect x="53.84" y="28.12" width="2.16" height="2.81"></rect><rect x="53.84" y="33.22" width="2.16" height="2.81"></rect><rect x="50.97" y="31" width="2.8" height="2.15"></rect><rect x="56.07" y="31" width="2.8" height="2.15"></rect><rect x="40.92" y="5.39" width="2.16" height="2.8"></rect><rect x="40.92" y="10.49" width="2.16" height="2.8"></rect><rect x="38.06" y="8.26" width="2.8" height="2.16"></rect><rect x="43.16" y="8.26" width="2.8" height="2.16"></rect></svg>