<svg xmlns="http://www.w3.org/2000/svg" viewBox="0 0 100 100"><path d="M97.78,36.75a1.16,1.16,0,0,1-.94.47H65.3a1.15,1.15,0,0,1-1.1-1.47l4.51-15.61a1.15,1.15,0,0,1,1.11-.83h22a1.12,1.12,0,0,1,1.09.8l5,15.6A1.21,1.21,0,0,1,97.78,36.75Z"></path><path d="M69.25,53.11V75.7H64.41V80a1.21,1.21,0,0,1-1.21,1.21H57.57A1.21,1.21,0,0,1,56.36,80V75.7h-42V80a1.21,1.21,0,0,1-1.22,1.21H7.5A1.21,1.21,0,0,1,6.3,80V75.7H1.42V53.11A1.22,1.22,0,0,1,2.64,51.9H14.42a1.21,1.21,0,0,1,1.22,1.21v9.78H55V53.11a1.21,1.21,0,0,1,1.21-1.21H68A1.21,1.21,0,0,1,69.25,53.11Z"></path><path d="M89.56,77.65v3h-17v-3a1.16,1.16,0,0,1,1.15-1.15H79V39.07h4.2V76.5h5.23A1.16,1.16,0,0,1,89.56,77.65Z"></path><path d="M94.71,45.08a1.6,1.6,0,0,1-3.2,0,1.63,1.63,0,0,1,.74-1.36V39.07H94v4.65A1.6,1.6,0,0,1,94.71,45.08Z"></path><path d="M62.61,49.25H56.25a3.86,3.86,0,0,0-3.86,3.86v7.13H18.29V53.11a3.87,3.87,0,0,0-3.87-3.86H8.07A16.34,16.34,0,0,1,24.29,34.31H46.38A16.33,16.33,0,0,1,62.61,49.25Z" ></path></svg>