<svg xmlns="http://www.w3.org/2000/svg" viewBox="0 0 100 100"><circle cx="22.07" cy="15.96" r="6.98"></circle><polygon points="22.25 64.86 22 71.82 9.55 71.82 6.61 91.02 3.17 91.02 6.12 71.82 2.87 71.82 2.87 64.84 4.25 64.84 1.33 35.16 5.03 35.16 7.93 64.86 22.25 64.86"></polygon><path d="M32.54,36.91V40.4h-7A1.75,1.75,0,0,0,23.82,42L22.49,61.36H11.6V36.91a10.47,10.47,0,1,1,20.94,0Z"></path><polygon points="95.75 64.84 97.13 64.84 97.13 71.82 93.88 71.82 96.83 91.02 93.39 91.02 90.44 71.82 78 71.82 77.75 64.84 92.07 64.84 94.97 35.16 98.67 35.16 95.75 64.84"></polygon><path d="M88.4,36.91V61.35H77.51L76.18,42a1.75,1.75,0,0,0-1.74-1.62h-7V36.91a10.47,10.47,0,1,1,20.94,0Z"></path><circle cx="77.93" cy="15.96" r="6.98"></circle><path d="M65.71,91V52.62H62.22V91H51.75V52.62h-3.5V91H37.78V52.62H34.29V91H23.94l3.25-47.13H36V40.24a2.61,2.61,0,0,1-1.75-2.46V34.29a.86.86,0,0,1,.87-.87h3.49a.87.87,0,0,1,.88.87v3.49a2.61,2.61,0,0,1-1.75,2.46v3.65h14V31.67l1.74-1.74V24.69H57v5.24l1.75,1.74V43.89h3.49V40.24a2.61,2.61,0,0,1-1.75-2.46V34.29a.87.87,0,0,1,.88-.87h3.49a.86.86,0,0,1,.87.87v3.49A2.61,2.61,0,0,1,64,40.24v3.65h8.85L76.06,91Z"></path></svg>