<svg xmlns="http://www.w3.org/2000/svg" viewBox="0 0 100 100"><path d="M40.55,91.63l-5.37-5.37a1.84,1.84,0,0,0-1.27-.51H32.13V80.38H28.55v5.37H26.77a1.84,1.84,0,0,0-1.27.51l-5.37,5.37a1.8,1.8,0,0,0,1.27,3.05H39.28a1.8,1.8,0,0,0,1.27-3.05Zm-14.84-.52,1.79-1.79h5.68L35,91.11Z"></path><path d="M79.87,91.63,74.5,86.26a1.84,1.84,0,0,0-1.27-.51H71.45V80.38H67.87v5.37H66.09a1.84,1.84,0,0,0-1.27.51l-5.37,5.37a1.8,1.8,0,0,0,1.27,3.05H78.6a1.8,1.8,0,0,0,1.27-3.05ZM65,91.11l1.79-1.79H72.5l1.79,1.79Z"></path><path d="M94.68,32.13v5.36H5.32V32.13a1.79,1.79,0,0,1,1.79-1.79H92.89A1.79,1.79,0,0,1,94.68,32.13Z"></path><path d="M37.49,57.85v4.66H23.19V57.85a10.25,10.25,0,0,0,2.25-4.62l1-5h7.8l1,5A10.25,10.25,0,0,0,37.49,57.85Z"></path><path d="M76.81,57.85v4.66H62.51V57.85a10.25,10.25,0,0,0,2.25-4.62l1-5h7.8l1,5A10.25,10.25,0,0,0,76.81,57.85Z"></path><path d="M94.68,41.06V78.6a1.79,1.79,0,0,1-1.79,1.78H71.45V66.09H78.6a1.79,1.79,0,0,0,1.78-1.79V57.15a1.85,1.85,0,0,0-.51-1.27,6.47,6.47,0,0,1-1.81-3.34l-1.29-6.47A1.76,1.76,0,0,0,75,44.64H64.3a1.76,1.76,0,0,0-1.75,1.43l-1.29,6.47a6.47,6.47,0,0,1-1.81,3.34,1.85,1.85,0,0,0-.51,1.27V64.3a1.79,1.79,0,0,0,1.78,1.79h7.15V80.38H32.13V66.09h7.15a1.79,1.79,0,0,0,1.78-1.79V57.15a1.85,1.85,0,0,0-.51-1.27,6.47,6.47,0,0,1-1.81-3.34l-1.29-6.47a1.76,1.76,0,0,0-1.75-1.43H25a1.76,1.76,0,0,0-1.75,1.43l-1.29,6.47a6.47,6.47,0,0,1-1.81,3.34,1.85,1.85,0,0,0-.51,1.27V64.3a1.79,1.79,0,0,0,1.78,1.79h7.15V80.38H7.11A1.79,1.79,0,0,1,5.32,78.6V41.06Z"></path><path d="M89.32,7.11v3.57H78.6V7.11a1.79,1.79,0,0,1,1.78-1.79h7.15A1.79,1.79,0,0,1,89.32,7.11Z"></path><path d="M91.11,25v3.57H76.81V25a1.73,1.73,0,0,1,.2-.81L78.6,21V14.25H89.32V21l1.59,3.2A1.73,1.73,0,0,1,91.11,25Z"></path><path d="M73.23,7.11v3.57H62.51V7.11A1.79,1.79,0,0,1,64.3,5.32h7.15A1.79,1.79,0,0,1,73.23,7.11Z"></path><path d="M75,25v3.57H60.72V25a1.86,1.86,0,0,1,.2-.81L62.51,21V14.25H73.23V21l1.6,3.2A1.86,1.86,0,0,1,75,25Z"></path><path d="M41.87,28.55H31.32a6.68,6.68,0,0,1,.16-1.19l.7-2.81a1.78,1.78,0,0,1,1.73-1.36h5.37A1.78,1.78,0,0,1,41,24.55l.7,2.81A6.68,6.68,0,0,1,41.87,28.55Z"></path><path d="M29.36,28.55H18.81A6.68,6.68,0,0,1,19,27.36l.7-2.81a1.78,1.78,0,0,1,1.73-1.36h5.37a1.78,1.78,0,0,1,1.73,1.36l.7,2.81A6.68,6.68,0,0,1,29.36,28.55Z"></path></svg>